:SAMPLES-PER-SECOND 30
:FRAME-RANGE 1-668
:FULLY-SPECIFIED
:DEGREES
376
root  1.90995 39.8715 26.4477 -170.138 -18.5506 178.292
RightUpLeg  -7.86071 -7.06273 -6.89081
RightLeg  11.6034 0.331322 0.166585
RightFoot  -10.8132 -0.109573 7.80343
RightToes  5.38607e-012 1.2921e-014 -6.02303e-014
Spine  -4.74211 -2.07761 -2.28162
Spine1  6.67989 -1.29618 -3.21075
HEad  27.0521 36.3726 0.0478743
LeftShoulder1  0.734869 -0.593428 -11.9631
LeftArm  -33.9579 -15.2985 2.90574
LeftForeArm  36.1782 -10.7849 -3.7533
LeftHand  0.32906 8.12331 14.8112
RightShoulder  1.67963 2.77438 21.35
RightArm  -30.5457 11.5086 25.7267
RightForeArm  61.7603 0.168894 1.98678
RightHand  0.784598 -9.39867 -22.8048
LeftUpLeg  -12.4913 0.486116 0.951809
LeftLeg  12.0289 -2.94112 0.549869
LeftFoot  -8.20536 0.211508 -5.92788
LeftToes  -6.11857e-011 5.00151e-011 -2.22593e-011
377
root  1.70848 39.8735 26.5691 -169.697 -21.1247 177.956
RightUpLeg  -7.70627 -7.19292 -7.26623
RightLeg  11.6293 -1.97888 -0.382716
RightFoot  -10.7728 -0.116381 8.66463
RightToes  5.38607e-012 1.2921e-014 -6.02303e-014
Spine  -4.67784 -2.36872 -2.3622
Spine1  6.56872 -1.63268 -3.07395
HEad  27.7921 34.4094 0.330495
LeftShoulder1  0.837753 -0.911712 -13.0883
LeftArm  -33.0964 -16.4207 1.87355
LeftForeArm  36.4435 -11.4372 -4.12187
LeftHand  0.315068 8.03085 14.7147
RightShoulder  1.59122 2.52143 21
RightArm  -30.0698 9.75437 26.2017
RightForeArm  59.9205 -0.670135 2.02374
RightHand  0.694784 -9.20211 -21.3819
LeftUpLeg  -13.4374 1.55872 0.554007
LeftLeg  12.4427 -0.877752 0.399183
LeftFoot  -10.3141 0.144501 -9.2245
LeftToes  -6.11857e-011 5.00151e-011 -2.22593e-011
378
root  1.45406 39.8386 26.6882 -169.399 -23.5979 177.56
RightUpLeg  -7.48582 -7.66154 -7.82962
RightLeg  12.0347 -3.78275 -0.851229
RightFoot  -11.0195 -0.102117 9.62537
RightToes  5.38607e-012 1.2921e-014 -6.02303e-014
Spine  -4.68435 -2.54934 -2.72575
Spine1  6.64087 -1.84632 -2.93359
HEad  28.3044 32.2425 0.650818
LeftShoulder1  0.918978 -1.17739 -13.7885
LeftArm  -32.6799 -17.6953 -0.108467
LeftForeArm  36.6107 -11.7393 -4.32271
LeftHand  0.303268 7.978 14.4992
RightShoulder  1.50713 2.1656 21.2431
RightArm  -29.7429 8.28405 26.3727
RightForeArm  58.9582 -1.75015 1.94096
RightHand  0.581817 -8.84825 -19.9153
LeftUpLeg  -14.2321 2.25158 -0.196589
LeftLeg  13.0539 5.05813 1.62169
LeftFoot  -10.9277 0.0983539 -9.12983
LeftToes  -6.11857e-011 5.00151e-011 -2.22593e-011
379
root  1.13685 39.772 26.8025 -169.307 -25.8555 177.275
RightUpLeg  -7.14142 -7.96299 -8.38156
RightLeg  12.7192 -5.4036 -1.40603
RightFoot  -11.4089 -0.0713377 10.7832
RightToes  5.38607e-012 1.2921e-014 -6.02303e-014
Spine  -4.7169 -2.70042 -3.37752
Spine1  6.80149 -2.07454 -2.61152
HEad  28.8244 30.3116 0.974078
LeftShoulder1  0.962126 -1.26815 -14.3786
LeftArm  -31.3517 -19.001 -2.55104
LeftForeArm  36.5334 -11.4279 -4.7396
LeftHand  0.309474 7.93953 14.9579
RightShoulder  1.402 1.66607 21.9218
RightArm  -29.6363 7.49313 26.6245
RightForeArm  58.5108 -3.41624 1.6424
RightHand  0.535552 -8.73668 -19.0472
LeftUpLeg  -14.8572 3.19521 -0.897254
LeftLeg  14.0392 12.7449 3.53167
LeftFoot  -10.8021 0.10242 -8.02226
LeftToes  -6.11857e-011 5.00151e-011 -2.22593e-011
380
root  0.730672 39.6573 26.9145 -169.517 -27.7594 177.371
RightUpLeg  -7.00229 -8.3073 -8.7889
RightLeg  14.1494 -6.40952 -1.96052
RightFoot  -11.9333 -0.0199198 11.8472
RightToes  5.38607e-012 1.2921e-014 -6.02303e-014
Spine  -5.0722 -2.81336 -3.6938
Spine1  7.29198 -2.27254 -2.35897
HEad  29.4773 28.8973 1.14294
LeftShoulder1  0.99787 -1.34373 -14.8472
LeftArm  -29.5267 -19.5255 -5.57046
LeftForeArm  36.8151 -11.0811 -5.17887
LeftHand  0.277769 7.68834 14.9653
RightShoulder  1.37423 1.4616 22.5822
RightArm  -29.8319 7.45982 26.8325
RightForeArm  59.3728 -5.28929 1.1339
RightHand  0.45226 -8.45974 -17.7222
LeftUpLeg  -15.1438 4.03708 -1.16379
LeftLeg  15.5126 16.2407 4.74329
LeftFoot  -11.1572 0.0812667 -9.03726
LeftToes  -6.11857e-011 5.00151e-011 -2.22593e-011
381
root  0.225098 39.5336 27.0409 -169.865 -29.4336 177.407
RightUpLeg  -7.30927 -8.06632 -9.47719
RightLeg  16.8802 -7.47127 -2.74452
RightFoot  -12.2221 0.0240329 13.9113
RightToes  5.38607e-012 1.2921e-014 -6.02303e-014
Spine  -5.32573 -2.94203 -4.30288
Spine1  7.73006 -2.59639 -1.64199
HEad  30.2037 27.8988 1.06899
LeftShoulder1  1.0201 -1.23822 -15.927
LeftArm  -27.5986 -19.4689 -8.69531
LeftForeArm  36.9623 -10.8136 -5.57897
LeftHand  0.263067 7.60496 14.7675
RightShoulder  1.40254 1.45191 23.2785
RightArm  -30.6208 7.64064 27.0205
RightForeArm  59.6592 -5.19575 0.640246
RightHand  0.347143 -7.9599 -16.5042
LeftUpLeg  -15.2961 4.88403 -1.69519
LeftLeg  16.4874 14.317 4.18643
LeftFoot  -11.0215 0.0883738 -8.02824
LeftToes  -6.11857e-011 5.00151e-011 -2.22593e-011
